# Blender 4.1.0
# www.blender.org
mtllib TowerIndicationMarker.mtl
o Plane
v -0.500000 0.000000 0.500000
v 0.500000 0.000000 0.500000
v -0.500000 0.000000 -0.500000
v 0.500000 0.000000 -0.500000
v -0.400000 0.000000 -0.400000
v -0.400000 0.000000 0.400000
v 0.400000 0.000000 0.400000
v 0.400000 0.000000 -0.400000
vn -0.0000 1.0000 -0.0000
vt 1.000000 1.000000
vt 0.000000 1.000000
vt 0.000000 0.000000
vt 1.000000 0.000000
s 0
f 4/1/1 3/2/1 5/2/1 8/1/1
f 1/3/1 2/4/1 7/4/1 6/3/1
f 2/4/1 4/1/1 8/1/1 7/4/1
f 3/2/1 1/3/1 6/3/1 5/2/1
